<?xml version="1.0" standalone="no"?>
<!DOCTYPE svg PUBLIC "-//W3C//DTD SVG 20010904//EN"
 "http://www.w3.org/TR/2001/REC-SVG-20010904/DTD/svg10.dtd">
<svg version="1.0" xmlns="http://www.w3.org/2000/svg"
 width="512.000000pt" height="512.000000pt" viewBox="0 0 512.000000 512.000000"
 preserveAspectRatio="xMidYMid meet">
<metadata>
Created by potrace 1.16, written by Peter Selinger 2001-2019
</metadata>
<g transform="translate(0.000000,512.000000) scale(0.100000,-0.100000)"
fill="#000000" stroke="none">
<path d="M2728 4890 c-27 -28 -30 -36 -25 -73 11 -82 100 -124 160 -76 37 29
52 90 32 129 -19 37 -43 50 -95 50 -33 0 -48 -6 -72 -30z"/>
<path d="M2235 4826 c-162 -59 -361 -171 -477 -268 l-48 -40 -52 47 c-128 115
-272 194 -428 236 -116 32 -366 34 -480 5 -292 -75 -522 -259 -650 -521 -81
-165 -95 -229 -95 -435 0 -141 4 -189 19 -245 28 -102 67 -194 120 -279 l46
-74 -40 -65 c-56 -89 -108 -222 -131 -331 -25 -123 -25 -319 0 -441 66 -320
285 -595 585 -736 83 -38 212 -79 253 -79 13 0 23 -4 23 -10 0 -5 -18 -56 -40
-112 -43 -112 -49 -161 -22 -194 34 -42 49 -44 361 -44 l301 0 0 -435 c0 -465
1 -479 49 -505 31 -16 96 -12 121 8 14 12 125 249 301 643 l277 624 1069 5
1068 5 80 23 c90 25 222 85 291 132 114 79 232 216 297 345 13 28 37 88 53
135 27 81 28 94 28 265 0 176 0 182 -32 275 -87 258 -280 468 -523 565 l-84
34 -12 98 c-77 624 -493 1148 -1085 1367 -121 45 -159 46 -199 7 -23 -23 -29
-38 -29 -71 0 -56 35 -89 125 -119 39 -12 120 -47 180 -76 404 -196 699 -581
786 -1027 30 -154 34 -144 -68 -153 -347 -28 -636 -227 -774 -531 -37 -81 -37
-115 0 -156 24 -27 36 -33 69 -33 53 0 75 21 122 120 92 192 261 330 463 380
98 24 252 21 347 -5 267 -75 455 -280 507 -554 67 -352 -162 -707 -515 -797
-72 -18 -120 -19 -1074 -19 -549 0 -998 2 -998 4 0 2 12 30 26 61 32 69 26
116 -19 149 -27 20 -41 21 -383 24 l-354 3 0 435 c0 472 -1 477 -55 502 -44
20 -84 15 -113 -15 -20 -21 -85 -181 -242 -596 l-215 -567 -45 6 c-25 3 -85
19 -135 35 -360 114 -605 472 -581 849 7 119 28 202 77 308 143 310 428 492
769 492 293 0 543 -133 708 -377 23 -34 52 -69 64 -77 61 -43 148 5 148 82 0
80 -158 273 -313 383 -71 51 -219 129 -243 129 -25 0 -25 22 1 103 139 423
477 762 914 917 76 27 97 39 112 64 28 46 25 92 -10 127 -39 38 -80 38 -196
-5z m-1062 -226 c131 -33 247 -96 346 -188 l43 -41 -18 -24 c-158 -201 -256
-373 -318 -558 l-35 -104 -138 -1 c-143 -2 -228 -15 -344 -55 -117 -40 -248
-115 -335 -191 -41 -36 -36 -39 -89 64 -117 228 -107 519 26 744 48 83 190
223 274 272 178 104 389 133 588 82z m232 -2730 c30 -44 33 -45 375 -50 l327
-5 -206 -463 -206 -464 -5 244 c-5 255 -9 275 -53 300 -16 9 -102 14 -302 18
l-281 5 166 434 165 435 5 -220 c3 -120 10 -226 15 -234z"/>
<path d="M2545 1141 c-16 -10 -65 -54 -107 -99 -68 -70 -78 -84 -78 -116 0
-50 23 -91 59 -106 57 -23 89 -7 189 93 81 81 94 99 99 135 5 37 2 45 -30 77
-41 41 -84 46 -132 16z"/>
<path d="M3535 1150 c-11 -4 -59 -48 -107 -98 -84 -85 -88 -92 -88 -133 0 -52
18 -81 59 -99 57 -23 89 -7 191 95 92 93 95 97 95 141 0 39 -5 50 -33 75 -33
30 -75 37 -117 19z"/>
<path d="M4418 1062 c-95 -95 -98 -100 -98 -143 0 -52 18 -81 59 -99 56 -23
89 -7 183 88 48 48 92 99 97 114 25 68 -27 138 -102 138 -38 0 -47 -6 -139
-98z"/>
<path d="M2805 539 c-39 -11 -201 -174 -210 -212 -10 -37 1 -74 30 -103 19
-19 35 -24 71 -24 47 0 49 2 146 98 92 93 98 100 98 139 0 72 -65 120 -135
102z"/>
<path d="M3785 539 c-18 -5 -66 -44 -120 -99 -90 -90 -90 -91 -90 -141 0 -67
33 -99 103 -99 45 0 48 2 144 98 92 93 98 100 98 139 0 72 -65 120 -135 102z"/>
</g>
</svg>
